<?xml version="1.0" encoding="utf-8"?>
<svg xmlns="http://www.w3.org/2000/svg" xmlns:xlink="http://www.w3.org/1999/xlink"
     style="margin: auto; background: transparent; display: block; shape-rendering: auto;" width="150px"
     height="150px" viewBox="0 0 100 100" preserveAspectRatio="xMidYMid">
    <g transform="translate(50 50)">
        <g>
            <animateTransform attributeName="transform" type="rotate" values="0;40" keyTimes="0;1"
                              dur="0.34602076124567477s" repeatCount="indefinite"></animateTransform>
            <path d="M37.43995192304605 -6.5 L44.43995192304605 -6.5 L44.43995192304605 6.5 L37.43995192304605 6.5 A38 38 0 0 1 32.858786584253636 19.086648323120365 L32.858786584253636 19.086648323120365 L38.22109768608648 23.58616159092614 L29.864858760161468 33.54473935147286 L24.50254765832862 29.045226083667085 A38 38 0 0 1 12.902629817953784 35.74244177138504 L12.902629817953784 35.74244177138504 L14.118167061622296 42.6360960424705 L1.315666272463597 44.89352235214059 L0.10012902879508426 37.99986808105513 A38 38 0 0 1 -13.09081083692417 35.67394948182593 L-13.09081083692417 35.67394948182593 L-16.59081083692417 41.736127308317 L-27.849141086121872 35.23612730831701 L-24.349141086121872 29.173949481825936 A38 38 0 0 1 -32.95891561304871 18.91321975793477 L-32.95891561304871 18.91321975793477 L-39.53676395855007 21.30736076121445 L-43.98302582178376 9.091356690997642 L-37.405177476282404 6.697215687717961 A38 38 0 0 1 -37.405177476282404 -6.697215687717953 L-37.405177476282404 -6.697215687717953 L-43.98302582178376 -9.091356690997634 L-39.536763958550075 -21.30736076121444 L-32.95891561304872 -18.91321975793476 A38 38 0 0 1 -24.349141086121893 -29.17394948182592 L-24.349141086121893 -29.17394948182592 L-27.849141086121897 -35.23612730831699 L-16.5908108369242 -41.73612730831699 L-13.090810836924195 -35.67394948182592 A38 38 0 0 1 0.10012902879506654 -37.99986808105513 L0.10012902879506654 -37.99986808105513 L1.3156662724635764 -44.89352235214059 L14.11816706162228 -42.6360960424705 L12.90262981795377 -35.74244177138504 A38 38 0 0 1 24.502547658328616 -29.04522608366709 L24.502547658328616 -29.04522608366709 L29.86485876016146 -33.54473935147286 L38.221097686086466 -23.58616159092616 L32.85878658425362 -19.086648323120382 A38 38 0 0 1 37.43995192304605 -6.500000000000007 M0 -33A33 33 0 1 0 0 33 A33 33 0 1 0 0 -33"
                  fill="#e2b723"></path>
        </g>
    </g>
    <!-- [ldio] generated by https://loading.io/ -->
</svg>