<?xml version="1.0" standalone="no"?>
<!DOCTYPE svg PUBLIC "-//W3C//DTD SVG 20010904//EN"
 "http://www.w3.org/TR/2001/REC-SVG-20010904/DTD/svg10.dtd">
<svg version="1.0" xmlns="http://www.w3.org/2000/svg"
 width="288.000000pt" height="288.000000pt" viewBox="0 0 288.000000 288.000000"
 preserveAspectRatio="xMidYMid meet">
<metadata>
Created by potrace 1.10, written by Peter Selinger 2001-2011
</metadata>
<g transform="translate(0.000000,288.000000) scale(0.100000,-0.100000)"
fill="#000000" stroke="none">
<path d="M1259 2819 c-36 -5 -117 -22 -180 -39 -63 -17 -122 -32 -131 -34 -9
-3 -53 -20 -98 -40 l-81 -35 -36 25 c-46 31 -100 31 -175 0 -75 -31 -132 -77
-165 -134 -53 -89 -32 -239 43 -324 34 -39 45 -62 59 -122 9 -41 26 -90 38
-108 l23 -33 138 2 139 2 -6 -150 c-6 -146 -6 -149 13 -139 12 6 20 21 20 35
0 14 9 34 20 45 27 27 106 63 120 55 6 -4 21 0 34 8 22 15 24 23 28 144 3 86
10 140 21 166 28 65 112 137 226 193 l104 52 71 -33 c243 -111 296 -148 341
-239 22 -45 25 -63 25 -170 1 -138 7 -154 62 -154 39 0 71 -14 105 -45 l23
-20 -6 117 -6 117 88 -4 c49 -3 105 -8 124 -12 28 -5 41 -2 63 15 33 26 67 89
67 124 0 39 30 107 61 141 43 47 99 157 99 196 0 93 -40 161 -114 195 -81 38
-176 25 -176 -23 0 -12 -6 -11 -32 7 -49 32 -204 108 -277 136 -192 73 -477
108 -672 83z m431 -55 c175 -32 359 -110 522 -220 99 -67 190 -144 220 -186
19 -28 20 -34 8 -66 -7 -19 -25 -46 -41 -59 -31 -27 -45 -62 -55 -147 -8 -73
-49 -126 -96 -126 -33 0 -57 23 -58 54 0 18 3 17 29 -8 l29 -28 21 21 c40 40
38 66 -14 142 -126 184 -432 356 -697 391 -233 31 -580 -76 -804 -247 -138
-106 -202 -194 -180 -250 7 -18 47 -20 64 -3 10 10 15 10 22 -2 14 -22 -17
-42 -60 -38 -29 2 -38 9 -52 38 -15 32 -29 79 -43 150 -2 14 -22 47 -45 74
-22 26 -40 55 -40 64 0 14 123 142 195 202 68 58 242 150 362 193 233 84 452
100 713 51z m-981 -90 l22 -16 -22 -21 c-19 -18 -22 -19 -31 -4 -21 38 -103
11 -178 -59 -60 -56 -67 -80 -8 -30 47 40 61 40 29 0 -32 -41 -25 -47 22 -18
54 34 52 31 39 47 -9 11 -6 16 14 25 14 7 35 12 47 12 20 -1 19 -3 -11 -28
-18 -15 -32 -33 -32 -39 0 -7 -4 -13 -10 -13 -5 0 -35 -21 -67 -47 -33 -27
-58 -42 -61 -35 -2 7 -8 10 -13 6 -5 -3 -9 0 -9 5 0 6 -4 11 -10 11 -13 0 -13
-43 0 -56 8 -8 6 -15 -5 -24 -32 -27 -45 29 -24 104 12 44 94 132 150 162 31
16 81 30 119 33 9 0 26 -6 39 -15z m1689 -83 c45 -23 77 -56 91 -94 16 -43 14
-130 -5 -153 -14 -18 -15 -16 -11 31 3 28 3 56 0 63 -7 17 -23 5 -23 -19 0
-10 -5 -19 -11 -19 -13 0 -8 27 12 77 25 61 -15 48 -50 -16 -8 -13 -14 -10
-40 18 -36 38 -34 50 5 32 15 -6 29 -10 31 -7 3 3 -11 12 -31 20 -20 8 -36 20
-36 25 0 15 12 14 38 -5 13 -9 26 -14 29 -11 7 8 -37 34 -69 42 -22 6 -28 4
-28 -8 0 -23 -13 -27 -33 -12 -18 13 -18 14 2 34 27 27 79 27 129 2z m-712
-117 c103 -30 248 -95 331 -151 116 -77 253 -225 253 -274 0 -9 -7 -23 -16
-30 -15 -12 -19 -11 -32 9 -29 43 -77 18 -52 -28 13 -25 8 -36 -12 -24 -19 12
-119 7 -132 -6 -6 -6 -11 -30 -11 -53 0 -35 -3 -42 -20 -42 -19 0 -20 6 -17
75 8 164 -36 271 -142 347 -73 53 -316 168 -346 164 -14 -1 -93 -36 -176 -77
-165 -81 -225 -128 -266 -212 -20 -40 -23 -65 -26 -174 l-4 -128 -31 0 c-18 0
-56 -14 -86 -30 -30 -17 -55 -29 -57 -28 -3 4 12 90 21 113 5 16 5 17 -4 5 -8
-12 -11 -7 -11 22 0 35 -2 38 -36 44 -19 3 -57 4 -85 2 -35 -4 -47 -2 -40 6
10 13 -5 76 -19 76 -5 0 -12 -4 -15 -10 -11 -17 -45 -11 -45 8 0 21 93 120
174 185 148 119 387 214 606 241 73 9 210 -5 296 -30z m-194 -54 c6 0 79 -33
162 -74 159 -78 210 -117 249 -191 17 -33 21 -64 25 -172 2 -76 8 -131 13
-127 5 3 9 -4 9 -14 0 -18 -3 -19 -24 -9 -23 11 -24 16 -28 132 -3 106 -7 126
-30 170 -45 85 -98 129 -247 201 -150 73 -179 93 -159 106 8 4 14 2 16 -7 2
-8 8 -15 14 -15z"/>
<path d="M1584 2652 c-6 -4 -14 -19 -18 -34 -5 -24 -3 -28 13 -28 14 0 19 5
14 16 -4 10 1 17 15 21 18 4 19 7 7 19 -16 16 -16 16 -31 6z"/>
<path d="M1098 2620 c5 -35 3 -36 -40 -10 -18 11 -43 20 -56 20 -22 0 -22 -1
9 -40 35 -43 52 -47 25 -5 l-17 26 50 -25 50 -26 3 31 3 31 27 -21 c44 -35 56
-23 14 14 -50 45 -74 46 -68 5z"/>
<path d="M1225 2640 c-16 -7 -14 -9 14 -9 19 -1 32 -4 28 -7 -7 -8 17 -34 32
-34 17 0 13 18 -9 40 -22 22 -34 23 -65 10z"/>
<path d="M1324 2634 c3 -9 6 -27 6 -40 0 -15 6 -24 15 -24 8 0 15 5 15 10 0 6
6 10 13 10 7 0 23 7 35 16 18 13 21 19 11 30 -6 8 -21 14 -33 14 -19 -1 -19
-2 -4 -11 9 -5 15 -16 12 -23 -8 -20 -44 -7 -44 15 0 11 -7 19 -16 19 -11 0
-14 -5 -10 -16z"/>
<path d="M1474 2643 c22 -4 26 -7 15 -14 -11 -7 -11 -9 4 -9 10 0 16 -4 12 -9
-3 -5 -1 -12 5 -16 11 -7 31 35 23 48 -2 4 -23 6 -46 6 -33 -2 -36 -3 -13 -6z"/>
<path d="M1445 2620 c-8 -14 3 -30 21 -30 16 0 16 2 8 24 -7 18 -20 21 -29 6z"/>
<path d="M1640 2615 c-16 -20 -4 -35 28 -34 18 1 21 3 9 6 -26 7 -15 27 16 31
29 4 34 -7 15 -26 -17 -17 4 -15 28 3 16 13 17 16 4 25 -22 15 -86 12 -100 -5z"/>
<path d="M1215 2611 c-9 -15 28 -31 46 -20 11 7 11 9 -3 9 -10 0 -18 5 -18 10
0 13 -17 13 -25 1z"/>
<path d="M1884 2611 c4 -6 15 -11 24 -11 33 0 -10 -18 -60 -25 -76 -11 -73
-23 10 -40 36 -7 43 2 10 14 -21 7 -20 9 12 19 19 5 48 13 65 17 34 8 22 18
-34 30 -23 5 -31 4 -27 -4z"/>
<path d="M849 2553 c-12 -14 -10 -15 16 -9 19 4 41 0 59 -9 33 -18 36 -18 36
-5 0 28 -91 48 -111 23z"/>
<path d="M1987 2543 c6 -16 5 -16 -10 -4 -15 12 -17 11 -17 -3 0 -9 -7 -16
-15 -16 -8 0 -14 4 -12 9 1 5 -1 9 -5 10 -37 5 -38 -16 -1 -30 20 -7 34 -6 60
6 35 17 39 37 10 43 -13 3 -15 -1 -10 -15z"/>
<path d="M805 2530 c-3 -5 -1 -10 4 -10 6 0 11 -4 11 -9 0 -6 -12 -6 -31 -1
-34 10 -53 5 -44 -11 4 -5 26 -9 49 -9 28 0 52 -7 69 -20 45 -36 38 -5 -8 33
-25 21 -47 33 -50 27z"/>
<path d="M2018 2513 c-21 -9 -38 -20 -38 -25 0 -5 3 -8 8 -6 4 2 24 10 45 18
20 8 37 18 37 22 0 10 -8 9 -52 -9z"/>
<path d="M2077 2506 c-4 -9 -18 -18 -32 -22 -14 -3 -25 -10 -25 -15 0 -11 -3
-11 45 5 22 8 40 20 40 27 0 18 -22 22 -28 5z"/>
<path d="M2135 2470 c4 -6 -14 -10 -47 -10 l-53 0 30 -25 c26 -22 36 -25 80
-20 27 4 52 8 54 11 10 10 -7 12 -49 4 -34 -7 -48 -5 -60 6 -12 12 -7 14 39
14 46 0 52 2 41 15 -14 17 -45 21 -35 5z"/>
<path d="M680 2462 c0 -5 12 -12 28 -16 15 -3 37 -8 50 -12 12 -4 22 -2 22 4
0 5 -16 13 -36 16 -19 4 -42 10 -50 13 -8 3 -14 1 -14 -5z"/>
<path d="M595 2450 c-3 -5 6 -12 20 -16 13 -3 23 -10 20 -15 -16 -25 93 -40
114 -15 15 18 8 22 -54 31 -27 4 -60 11 -72 16 -13 5 -25 4 -28 -1z m135 -41
c0 -10 -40 -12 -64 -3 -9 3 -14 9 -12 13 7 10 76 1 76 -10z"/>
<path d="M2208 2413 c-16 -2 -28 -9 -28 -14 0 -6 4 -8 8 -5 4 2 14 1 21 -4 10
-5 4 -10 -17 -15 -38 -8 -66 4 -36 16 16 6 15 8 -8 8 -42 1 -36 -27 7 -35 44
-8 85 2 85 21 0 8 9 15 19 15 11 0 23 5 26 10 6 10 -23 11 -77 3z"/>
<path d="M603 2383 c-14 -5 -18 -33 -5 -33 5 0 16 -6 26 -13 16 -11 14 -13
-16 -15 -18 -1 -40 2 -47 7 -20 13 -51 -5 -51 -29 0 -21 -1 -21 113 -24 53 -1
57 1 57 22 0 13 -6 22 -15 22 -26 0 -16 15 11 16 33 2 41 11 23 28 -15 15 -77
27 -96 19z m82 -23 c-3 -5 -22 -10 -41 -10 -19 0 -34 5 -34 10 0 6 18 10 41
10 24 0 38 -4 34 -10z m-15 -60 c0 -5 -13 -10 -30 -10 -16 0 -30 5 -30 10 0 6
14 10 30 10 17 0 30 -4 30 -10z"/>
<path d="M2250 2345 c0 -12 -6 -15 -20 -10 -11 4 -20 2 -20 -4 0 -6 -7 -11
-16 -11 -10 0 -14 6 -10 15 4 10 -1 15 -14 15 -24 0 -24 1 -7 -39 13 -30 13
-30 30 -11 10 12 29 20 47 20 30 0 42 21 20 35 -5 3 -10 -1 -10 -10z"/>
<path d="M2230 2300 l-35 -7 32 -2 c17 0 33 -6 35 -13 2 -6 9 -8 16 -4 11 7 6
37 -7 35 -3 -1 -22 -5 -41 -9z"/>
<path d="M577 1944 c-3 -3 -3 -12 0 -20 11 -30 -7 -85 -33 -94 -16 -7 -27 -20
-31 -41 l-6 -31 -13 28 c-13 27 -13 23 -9 -41 2 -38 7 -87 11 -108 4 -23 2
-43 -5 -51 -15 -18 -4 -63 23 -97 12 -15 26 -35 32 -45 17 -29 28 -9 15 27 -9
25 -8 34 1 40 17 11 26 3 43 -37 10 -25 20 -34 38 -34 19 0 26 -8 36 -42 19
-64 42 -108 56 -108 7 0 24 9 39 21 30 24 35 72 11 100 -11 11 -17 41 -19 91
-3 81 -19 128 -32 95 -4 -10 -2 -23 5 -30 22 -22 12 -35 -24 -33 -19 2 -36 -1
-38 -7 -1 -5 -9 -8 -16 -6 -11 4 -11 8 2 20 19 20 26 111 9 117 -7 2 -12 12
-12 23 0 10 -4 19 -9 19 -16 0 -38 135 -23 144 12 7 -6 76 -20 76 -4 0 -8 7
-8 15 0 15 -12 20 -23 9z m12 -174 c4 0 8 -6 9 -12 4 -37 17 -76 33 -97 13
-16 17 -32 12 -49 -4 -18 -3 -23 7 -17 9 6 10 3 1 -13 -21 -40 -8 -66 38 -76
28 -7 40 -14 37 -23 -3 -7 -2 -13 3 -13 5 0 11 -22 15 -49 4 -27 12 -51 19
-54 7 -2 3 -8 -11 -16 -19 -10 -22 -9 -22 9 0 12 -4 19 -8 16 -5 -3 -9 1 -9 9
0 8 5 15 11 16 6 0 1 4 -11 9 -13 5 -23 15 -23 22 0 7 -14 22 -30 33 -16 11
-30 23 -30 26 0 3 -9 17 -20 29 -18 21 -24 23 -50 13 -26 -10 -30 -9 -36 9 -3
11 -1 25 5 31 12 12 15 31 4 24 -5 -3 -9 35 -10 85 0 49 1 87 4 85 6 -7 43 30
44 46 1 6 4 0 6 -15 2 -16 8 -28 12 -28z"/>
<path d="M511 1925 c-1 -11 -4 -35 -5 -52 -2 -18 0 -33 4 -33 14 0 18 25 10
65 -4 22 -9 31 -9 20z"/>
<path d="M2140 1881 c0 -28 -4 -53 -10 -56 -12 -7 -14 -26 -2 -24 24 4 42 -3
42 -16 0 -8 -4 -15 -10 -15 -5 0 -10 -5 -10 -12 0 -6 3 -8 7 -5 3 4 14 0 24
-9 11 -9 26 -13 37 -9 20 6 19 7 -4 30 -18 18 -24 34 -22 59 1 23 6 32 15 29
7 -3 13 -10 13 -15 0 -6 7 -8 14 -5 9 4 17 -2 21 -14 4 -10 10 -17 15 -14 10
6 21 -39 20 -80 -1 -27 3 -63 12 -105 5 -26 -13 -110 -23 -110 -6 0 -9 -8 -8
-17 2 -10 -8 -39 -20 -65 -17 -34 -30 -48 -49 -52 -38 -8 -67 -1 -67 15 0 8 6
13 13 11 8 -1 11 1 8 6 -3 5 1 18 9 28 8 11 11 29 8 43 -4 15 -2 22 5 17 19
-11 43 5 36 26 -3 10 0 26 7 35 12 14 14 13 20 -8 4 -15 6 -4 5 27 -1 30 -11
65 -23 86 l-21 36 22 -5 c11 -2 6 3 -13 12 -39 18 -42 16 -47 -24 -3 -25 1
-32 26 -43 40 -17 43 -58 3 -58 -26 0 -26 0 -7 -21 15 -17 16 -22 4 -29 -8 -5
-18 -6 -22 -4 -4 3 -8 -4 -8 -16 0 -17 -4 -20 -20 -15 -24 8 -26 -11 -5 -39
21 -28 18 -42 -4 -22 -23 21 -26 16 -35 -46 -7 -48 -7 -48 21 -48 16 0 34 -5
41 -12 9 -9 12 -8 12 6 0 15 3 16 14 6 8 -6 12 -18 9 -26 -3 -8 0 -14 6 -14 6
0 11 6 11 14 0 8 7 16 15 20 8 3 15 12 15 20 0 10 6 13 15 10 11 -5 13 -2 9
10 -4 10 0 18 10 22 9 4 16 14 14 23 -1 9 6 28 16 44 10 15 16 36 13 46 -3 11
1 22 8 25 7 2 15 26 18 53 3 26 8 73 11 103 6 54 6 54 -9 26 -8 -15 -13 -31
-11 -35 7 -12 -14 -52 -24 -46 -7 4 -7 11 -2 18 5 7 9 30 10 52 1 22 4 49 6
60 3 11 5 22 5 25 1 2 6 -1 13 -8 23 -23 28 -12 28 58 0 40 -4 70 -10 70 -5 0
-10 -16 -10 -35 0 -39 -7 -43 -26 -18 -18 25 -27 10 -13 -21 9 -20 10 -29 1
-38 -8 -8 -13 -4 -17 15 -9 35 -69 80 -95 72 -15 -5 -23 0 -32 19 -17 40 -28
31 -28 -23z"/>
<path d="M1282 1857 c-18 -29 -38 -60 -44 -69 -13 -18 5 -40 70 -87 l30 -21
50 71 50 72 -32 26 c-36 32 -78 61 -86 61 -3 0 -20 -24 -38 -53z m74 -22 c4
-8 10 -12 15 -9 18 11 8 -14 -21 -54 -34 -47 -41 -51 -33 -22 4 16 2 19 -11
14 -19 -7 -22 17 -5 49 20 37 46 48 55 22z"/>
<path d="M2111 1776 c-14 -17 -28 -95 -15 -83 9 9 35 89 30 94 -2 2 -9 -3 -15
-11z"/>
<path d="M1350 1641 c-25 -36 -46 -71 -48 -76 -2 -10 67 -42 71 -33 1 1 21 31
45 65 23 34 42 64 42 67 0 2 -15 13 -33 23 l-33 20 -44 -66z"/>
<path d="M1656 1635 c-3 -8 2 -19 12 -24 16 -10 16 -10 0 -11 -9 0 -20 5 -23
10 -9 14 -38 -17 -32 -34 4 -9 -5 -16 -25 -20 -21 -4 -28 -10 -25 -21 4 -8 -2
-20 -11 -27 -21 -16 -22 -41 -2 -50 11 -5 9 -7 -7 -7 -13 -1 -23 4 -23 11 0 9
-3 9 -11 1 -18 -18 -1 -33 38 -33 30 0 35 3 30 19 -3 13 3 22 21 31 19 8 23
13 13 20 -11 6 -9 11 8 20 13 7 20 17 17 26 -5 12 4 18 24 16 14 -1 82 67 76
77 -11 17 -73 14 -80 -4z"/>
<path d="M2119 1580 c12 -11 27 -17 33 -14 11 7 -21 33 -42 33 -10 0 -8 -6 9
-19z"/>
<path d="M1370 1501 c-25 -36 -46 -69 -48 -72 -2 -5 69 -42 73 -37 1 2 23 33
48 70 l47 68 -38 19 -37 19 -45 -67z"/>
<path d="M1100 1347 c0 -7 13 -20 29 -30 39 -23 64 -79 55 -120 -10 -47 -29
-70 -92 -115 -31 -22 -72 -56 -91 -75 l-35 -35 -50 81 c-59 99 -122 180 -144
189 -86 35 -167 -35 -207 -177 -9 -33 -41 -106 -71 -163 -45 -86 -54 -112 -54
-155 0 -47 6 -62 56 -137 52 -79 55 -88 50 -130 -4 -25 -17 -68 -31 -96 -14
-28 -25 -58 -25 -67 0 -28 21 -61 55 -87 18 -14 82 -62 142 -107 66 -51 117
-83 132 -83 26 0 111 79 111 103 0 10 -66 68 -113 98 -7 5 3 39 18 57 2 2 25
-12 52 -31 63 -45 111 -68 207 -102 301 -103 665 -81 925 55 55 29 77 36 83
27 16 -24 7 -36 -54 -73 -35 -21 -65 -39 -67 -40 -7 -6 62 -105 80 -114 41
-23 83 -11 164 45 44 30 103 71 132 90 29 20 57 44 63 54 16 31 12 95 -10 146
-32 74 -27 106 32 203 74 122 74 143 5 318 -30 76 -60 172 -67 211 -13 82 -35
117 -87 138 -83 35 -135 3 -198 -117 -21 -40 -54 -99 -73 -131 l-36 -59 -20
29 c-31 44 -91 99 -157 144 -65 44 -95 92 -85 135 9 36 55 83 89 92 18 5 33
16 35 25 3 16 -25 17 -372 17 -300 0 -376 -3 -376 -13z m643 -34 c-25 -22 -53
-76 -53 -101 0 -34 27 -86 64 -121 19 -19 33 -38 30 -43 -5 -8 10 -12 35 -8
16 2 94 -72 121 -116 16 -25 18 -37 9 -65 -5 -19 -9 -84 -8 -144 3 -151 0
-156 -151 -211 -82 -29 -223 -54 -309 -54 -138 0 -310 48 -420 116 -57 36 -61
41 -56 69 30 161 30 161 6 242 l-23 78 54 48 c47 43 57 48 87 43 18 -3 41 -12
50 -20 13 -12 18 -12 28 -1 18 20 85 28 118 14 17 -7 35 -11 40 -9 49 14 87
15 115 4 22 -10 37 -11 50 -4 25 14 103 13 117 -1 9 -9 20 -8 45 2 18 7 40 12
50 11 9 -2 19 2 23 8 8 13 -50 13 -76 -1 -15 -7 -24 -7 -35 1 -18 16 -110 16
-129 0 -11 -9 -18 -10 -29 -1 -8 7 -49 11 -97 11 -46 0 -106 1 -132 1 -27 0
-55 -5 -62 -11 -10 -9 -20 -8 -40 2 l-26 14 38 48 c33 43 38 55 37 102 0 39
-6 62 -22 84 l-23 30 297 0 c284 0 296 -1 277 -17z m-979 -97 c37 -15 116
-128 194 -277 41 -80 47 -98 47 -152 0 -64 -20 -154 -38 -172 -9 -10 -7 17 7
105 5 30 3 27 -14 -15 l-19 -50 6 40 c3 22 9 50 14 62 5 12 4 25 0 28 -5 3
-14 -18 -21 -45 -7 -28 -16 -50 -21 -50 -11 0 -12 -6 11 70 23 76 22 70 11 70
-5 0 -17 -34 -27 -75 -10 -41 -21 -75 -26 -75 -11 0 -11 0 12 82 11 40 20 79
20 88 -1 28 -17 -11 -31 -73 -7 -32 -16 -60 -21 -63 -13 -9 -9 27 12 95 11 35
18 66 15 69 -9 9 -16 -5 -32 -65 -18 -69 -36 -105 -26 -53 3 19 14 61 23 93
10 31 15 57 11 57 -4 0 -18 -36 -31 -81 -12 -44 -27 -76 -31 -72 -5 5 3 44 17
87 13 43 23 84 21 89 -4 13 -21 -29 -42 -105 -9 -32 -21 -58 -27 -58 -5 0 -8
6 -5 13 25 64 60 191 64 232 9 85 -28 175 -77 188 -26 7 -26 -10 0 -18 35 -11
54 -63 53 -145 -1 -95 -21 -154 -54 -158 -13 -2 -28 -8 -33 -13 -14 -13 -26
-11 -26 5 0 7 10 20 23 29 12 8 19 18 15 23 -5 4 -17 -1 -28 -11 -17 -15 -20
-16 -20 -3 0 9 7 21 15 28 27 22 16 32 -12 11 -39 -31 -43 -14 -5 21 40 35 36
46 -7 25 -37 -19 -40 -9 -6 23 29 28 25 42 -5 15 -28 -25 -38 -10 -12 18 28
29 28 41 1 27 -29 -16 -35 -6 -10 19 28 28 26 42 -4 28 -70 -33 -20 -210 101
-350 98 -116 306 -258 450 -307 328 -114 721 -11 995 260 141 138 192 305 126
411 -11 19 -22 29 -24 22 -3 -7 2 -20 11 -28 35 -36 29 -143 -15 -245 -20 -47
-21 -47 -65 -46 -38 1 -44 4 -40 19 2 10 0 14 -6 11 -6 -4 -9 -1 -6 7 3 8 15
19 27 25 15 8 19 14 11 19 -6 4 -17 1 -25 -5 -12 -10 -15 -9 -15 3 0 9 10 23
22 31 27 19 18 32 -11 16 -17 -9 -21 -8 -21 5 0 8 11 21 25 27 14 6 25 15 25
20 0 11 -7 10 -31 -2 -26 -14 -25 4 1 30 24 24 26 34 5 26 -26 -10 -17 24 10
36 27 12 35 34 10 24 -13 -5 -14 -2 -4 15 8 17 8 20 -2 17 -54 -18 -78 -219
-40 -343 11 -38 18 -72 15 -77 -17 -27 -30 9 -54 151 l-8 46 -1 -50 c0 -28 6
-77 14 -108 18 -71 19 -88 1 -64 -8 10 -20 57 -27 105 -8 51 -15 75 -17 59 -3
-27 11 -129 24 -176 5 -16 3 -22 -3 -18 -12 8 -33 84 -33 121 0 14 -4 26 -8
26 -10 0 3 -105 17 -143 6 -14 6 -29 2 -32 -13 -7 -31 50 -38 118 -3 31 -9 57
-13 57 -10 0 0 -97 16 -150 12 -41 12 -61 -2 -48 -3 4 -12 28 -20 55 l-14 48
4 -45 c2 -25 7 -53 11 -62 4 -11 3 -18 -3 -18 -13 0 -23 30 -32 100 l-7 55 -2
-50 c0 -28 3 -64 8 -81 9 -31 -1 -65 -15 -51 -4 4 -9 54 -12 111 -4 95 -2 108
21 160 14 30 39 75 55 98 16 24 49 80 72 126 47 90 81 122 130 122 73 0 107
-42 129 -164 6 -33 33 -115 61 -184 54 -135 58 -160 34 -218 -59 -142 -196
-266 -427 -388 -148 -78 -248 -106 -439 -127 -134 -14 -259 -4 -408 34 -90 22
-296 120 -405 192 -85 57 -216 185 -272 267 -42 61 -48 77 -48 122 0 37 8 66
29 106 67 129 84 167 90 205 12 66 48 128 92 152 46 27 46 27 88 9z m-4 -370
c0 -8 -3 -22 -6 -31 -6 -14 -8 -13 -22 6 -12 18 -13 23 -1 30 20 13 29 11 29
-5z m1473 -24 c3 -4 -3 -18 -14 -31 -16 -19 -20 -21 -25 -7 -3 9 -4 23 0 31 6
16 31 20 39 7z m-1628 -372 c-5 -16 -3 -19 11 -13 13 5 15 2 9 -18 -7 -21 -6
-22 9 -10 14 12 16 11 17 -5 0 -11 3 -14 6 -6 2 6 9 10 14 7 11 -8 -32 -94
-61 -120 -30 -27 -55 -10 -55 39 0 42 -12 48 -21 9 -9 -36 15 -77 47 -81 19
-2 35 7 62 37 29 32 39 38 49 28 7 -7 59 -50 116 -95 l102 -83 -17 -24 c-10
-14 -25 -23 -33 -22 -15 3 -16 8 -5 42 6 17 4 17 -14 -4 -12 -13 -24 -21 -28
-17 -3 3 2 15 12 26 22 24 9 27 -17 3 -20 -18 -39 -10 -20 9 7 7 12 19 12 27
0 11 -4 10 -20 -4 -11 -10 -23 -15 -28 -10 -4 4 -1 10 6 12 6 3 12 14 12 25 0
20 -1 20 -18 5 -30 -27 -47 -22 -27 9 l16 25 -26 -17 c-30 -20 -49 -9 -21 12
11 7 17 17 13 20 -4 4 -13 1 -22 -6 -20 -17 -32 -5 -15 15 23 28 6 24 -28 -6
-17 -16 -32 -30 -32 -33 0 -2 45 -38 100 -81 55 -43 100 -79 100 -82 0 -18
-240 159 -277 205 -22 27 -14 73 22 139 34 60 64 86 50 43z m1776 -93 c11 -21
23 -59 26 -85 5 -49 -2 -62 -63 -103 -12 -8 -58 -40 -102 -72 -44 -31 -95 -60
-114 -63 l-33 -5 36 19 c27 14 168 113 198 138 7 6 -41 54 -53 54 -6 0 -5 -5
2 -12 20 -20 13 -32 -8 -13 -21 19 -28 7 -8 -13 19 -19 -3 -14 -26 6 -20 17
-20 17 -2 -11 21 -35 14 -47 -14 -22 -21 19 -29 8 -8 -13 20 -20 -1 -26 -23
-6 -22 19 -22 19 -14 -6 8 -25 8 -25 -14 -6 -23 21 -27 16 -9 -14 18 -29 1
-36 -22 -9 l-20 24 11 -28 c16 -37 2 -47 -22 -17 l-21 25 7 -29 c5 -26 4 -28
-9 -17 -14 12 -16 10 -16 -8 0 -29 -15 -19 -29 19 -10 30 -10 30 82 92 51 34
105 72 120 85 35 28 44 29 52 3 10 -30 50 -53 80 -46 35 9 33 58 -5 131 -16
31 -30 59 -30 62 0 14 34 -25 51 -60z m-30 -12 c35 -74 35 -99 -1 -103 -21 -2
-30 6 -57 56 -40 71 -41 83 -8 52 14 -13 25 -18 25 -12 0 6 -4 14 -10 17 -5 3
-10 14 -10 23 1 15 3 14 16 -3 15 -19 15 -19 9 8 -12 47 5 30 36 -38z m-87
-10 c3 -8 1 -15 -5 -15 -5 0 -20 -9 -31 -20 -16 -15 -24 -17 -29 -8 -9 15 8
38 27 38 8 0 14 5 14 10 0 15 17 12 24 -5z"/>
<path d="M713 760 c5 -19 2 -21 -16 -16 -56 15 -138 28 -143 23 -9 -8 6 -67
17 -67 5 0 9 11 9 25 0 28 -6 28 108 0 l53 -13 -3 31 c-2 17 -9 33 -17 35 -10
3 -12 -1 -8 -18z"/>
<path d="M2270 770 c0 -5 14 -10 31 -10 16 0 28 -4 24 -9 -8 -14 35 -41 66
-41 42 0 59 10 59 35 0 18 -7 24 -37 29 -59 9 -143 7 -143 -4z m144 -16 c29
-11 17 -24 -23 -24 -38 0 -57 10 -44 24 8 8 46 8 67 0z"/>
<path d="M2310 691 c-6 -12 -9 -21 -8 -22 56 -15 128 -21 128 -10 0 6 -12 11
-27 12 -36 1 -65 12 -63 24 3 19 -19 16 -30 -4z"/>
<path d="M575 680 c-4 -6 -2 -17 4 -24 6 -7 8 -16 4 -19 -9 -10 35 -8 80 2 48
11 53 17 37 36 -16 19 -31 20 -24 1 9 -23 -12 -27 -31 -6 -19 21 -60 27 -70
10z"/>
<path d="M2288 636 c-17 -12 -25 -36 -12 -36 3 0 12 7 20 15 22 21 36 19 29
-5 -5 -15 -1 -22 17 -29 28 -10 48 -4 48 15 0 8 5 14 10 14 6 0 10 4 10 9 0 5
-17 12 -37 15 -21 4 -45 9 -53 11 -8 2 -23 -2 -32 -9z"/>
<path d="M666 615 c-27 -6 -52 -17 -54 -24 -4 -11 1 -12 19 -7 52 15 89 18 89
8 0 -12 -24 -22 -56 -22 -15 0 -24 -6 -24 -16 0 -10 6 -14 14 -11 8 3 31 9 51
13 44 8 54 26 28 52 -16 16 -24 17 -67 7z"/>
<path d="M2230 565 c-28 -33 29 -75 84 -61 29 7 35 36 12 55 -26 21 -80 25
-96 6z m64 -15 c34 -13 33 -30 -1 -30 -35 0 -58 14 -49 29 9 14 17 14 50 1z"/>
<path d="M771 533 c12 -15 12 -16 -4 -10 -10 4 -36 4 -58 1 l-40 -7 22 -23
c29 -31 61 -34 34 -4 -18 20 -17 20 40 20 57 0 58 0 40 20 -23 26 -55 29 -34
3z"/>
<path d="M2095 507 l-27 -22 68 -34 c63 -31 70 -33 93 -20 37 21 39 47 4 56
-15 4 -33 6 -39 5 -7 -1 -14 7 -17 18 -7 27 -49 26 -82 -3z m74 -13 c3 -3 -1
-10 -7 -16 -9 -9 -18 -8 -39 1 -21 10 -24 14 -12 21 12 8 46 5 58 -6z m66 -33
c3 -5 0 -13 -5 -16 -15 -9 -60 3 -60 15 0 13 57 13 65 1z"/>
<path d="M786 476 c-31 -14 -45 -25 -38 -30 13 -8 102 32 102 46 0 11 -9 9
-64 -16z"/>
<path d="M870 475 c-87 -60 -83 -55 -63 -71 25 -19 35 -17 29 4 -5 14 6 24 48
47 30 16 52 33 50 37 -8 13 -27 8 -64 -17z"/>
<path d="M895 438 c4 -9 -5 -20 -22 -28 -15 -7 -23 -15 -16 -17 19 -7 68 20
68 37 0 8 -8 16 -17 18 -12 2 -16 -1 -13 -10z"/>
<path d="M983 403 c9 -2 17 -11 17 -18 0 -9 -6 -12 -15 -8 -10 3 -15 1 -13 -8
2 -7 -5 -15 -14 -17 -13 -2 -18 3 -18 17 0 25 -13 27 -30 6 -10 -12 -6 -17 23
-31 33 -16 35 -16 66 7 17 12 31 28 31 35 0 13 -23 25 -48 23 -15 -1 -15 -2 1
-6z"/>
<path d="M1992 401 c-40 -25 24 -80 72 -61 36 13 32 27 -6 22 -20 -2 -41 3
-53 13 -19 16 -18 16 18 10 37 -6 52 7 21 19 -21 8 -36 7 -52 -3z"/>
<path d="M1040 345 c-22 -23 -29 -35 -19 -35 15 0 69 49 69 63 0 15 -18 5 -50
-28z"/>
<path d="M1917 374 c-3 -4 3 -18 14 -33 19 -23 19 -26 4 -29 -9 -2 -30 9 -46
24 -36 35 -48 25 -19 -15 21 -31 62 -42 75 -21 4 6 12 9 19 8 20 -5 18 11 -6
42 -22 31 -30 35 -41 24z"/>
<path d="M1217 315 c-25 -51 -25 -55 -8 -55 10 0 21 9 24 20 6 22 27 27 27 7
0 -20 37 -51 45 -38 8 13 -25 60 -42 61 -15 0 -16 9 -4 28 12 19 47 10 43 -11
-4 -22 26 -23 35 -1 8 21 -5 30 -53 38 l-40 6 -27 -55z"/>
<path d="M1760 331 c0 -6 8 -11 18 -11 11 0 24 -11 30 -25 6 -14 19 -25 28
-25 29 0 -17 64 -49 68 -15 2 -27 -1 -27 -7z"/>
<path d="M1720 325 c0 -17 36 -75 47 -75 16 0 16 0 -2 44 -8 20 -22 36 -30 36
-8 0 -15 -2 -15 -5z"/>
<path d="M1384 310 c-33 -13 -39 -42 -14 -62 24 -20 39 -22 67 -11 14 6 10 9
-17 13 -27 4 -35 10 -35 25 0 11 8 21 18 23 10 2 17 -3 17 -12 0 -19 16 -21
26 -4 4 6 -1 17 -11 25 -21 15 -22 15 -51 3z"/>
<path d="M1622 308 c-7 -7 -12 -22 -12 -35 0 -26 34 -39 75 -29 36 9 31 23 -6
18 -29 -4 -48 8 -49 31 0 12 38 8 42 -5 2 -6 10 -8 17 -4 9 6 9 11 0 22 -14
17 -51 18 -67 2z"/>
<path d="M1476 298 c20 -35 46 -68 54 -68 7 0 50 64 50 76 0 14 -22 0 -33 -23
l-14 -26 -18 26 c-17 26 -54 40 -39 15z"/>
</g>
</svg>
